<?xml version="1.0" encoding="UTF-8"?>
<svg width="24px" height="24px" viewBox="0 0 24 24" version="1.1" xmlns="http://www.w3.org/2000/svg" xmlns:xlink="http://www.w3.org/1999/xlink">
    <!-- Generator: Sketch 51.2 (57519) - http://www.bohemiancoding.com/sketch -->
    <title>loading-light</title>
    <desc>Created with Sketch.</desc>
    <defs></defs>
    <g id="Symbols" stroke="none" stroke-width="1" fill="none" fill-rule="evenodd">
        <g id="Icons/Loading-light" fill="#6C6C6C" fill-rule="nonzero">
            <path d="M11.1477966,3.01694915 C11.1477966,2.50210744 11.5651583,2.08474576 12.08,2.08474576 C12.5948417,2.08474576 13.0122034,2.50210744 13.0122034,3.01694915 L13.0122034,6.40677966 C13.0122034,6.92162138 12.5948417,7.33898305 12.08,7.33898305 C11.5651583,7.33898305 11.1477966,6.92162138 11.1477966,6.40677966 L11.1477966,3.01694915 Z" id="l" fill-opacity="0.27"></path>
            <path d="M14.7805106,4.03574706 C14.7805106,3.52090534 15.1978723,3.10354367 15.712714,3.10354367 C16.2275557,3.10354367 16.6449174,3.52090534 16.6449174,4.03574706 L16.6449174,7.42557757 C16.6449174,7.94041928 16.2275557,8.35778096 15.712714,8.35778096 C15.1978723,8.35778096 14.7805106,7.94041928 14.7805106,7.42557757 L14.7805106,4.03574706 Z" id="l" fill-opacity="0.27" transform="translate(15.712714, 5.730662) rotate(30.000000) translate(-15.712714, -5.730662) "></path>
            <path d="M17.4171343,6.73440893 C17.4171343,6.21956722 17.834496,5.80220554 18.3493377,5.80220554 C18.8641794,5.80220554 19.2815411,6.21956722 19.2815411,6.73440893 L19.2815411,10.1242394 C19.2815411,10.6390812 18.8641794,11.0564428 18.3493377,11.0564428 C17.834496,11.0564428 17.4171343,10.6390812 17.4171343,10.1242394 L17.4171343,6.73440893 Z" id="l" fill-opacity="0.27" transform="translate(18.349338, 8.429324) rotate(60.000000) translate(-18.349338, -8.429324) "></path>
            <path d="M18.3511864,10.3898305 C18.3511864,9.87498879 18.7685481,9.45762712 19.2833898,9.45762712 C19.7982315,9.45762712 20.2155932,9.87498879 20.2155932,10.3898305 L20.2155932,13.779661 C20.2155932,14.2945027 19.7982315,14.7118644 19.2833898,14.7118644 C18.7685481,14.7118644 18.3511864,14.2945027 18.3511864,13.779661 L18.3511864,10.3898305 Z" id="l" fill-opacity="0.27" transform="translate(19.283390, 12.084746) rotate(90.000000) translate(-19.283390, -12.084746) "></path>
            <path d="M17.3323885,14.0225445 C17.3323885,13.5077028 17.7497502,13.0903411 18.2645919,13.0903411 C18.7794336,13.0903411 19.1967953,13.5077028 19.1967953,14.0225445 L19.1967953,17.412375 C19.1967953,17.9272168 18.7794336,18.3445784 18.2645919,18.3445784 C17.7497502,18.3445784 17.3323885,17.9272168 17.3323885,17.412375 L17.3323885,14.0225445 Z" id="l" fill-opacity="0.27" transform="translate(18.264592, 15.717460) rotate(120.000000) translate(-18.264592, -15.717460) "></path>
            <path d="M14.6337267,16.6591682 C14.6337267,16.1443265 15.0510883,15.7269648 15.5659301,15.7269648 C16.0807718,15.7269648 16.4981334,16.1443265 16.4981334,16.6591682 L16.4981334,20.0489987 C16.4981334,20.5638404 16.0807718,20.9812021 15.5659301,20.9812021 C15.0510883,20.9812021 14.6337267,20.5638404 14.6337267,20.0489987 L14.6337267,16.6591682 Z" id="l" fill-opacity="0.27" transform="translate(15.565930, 18.354083) rotate(150.000000) translate(-15.565930, -18.354083) "></path>
            <path d="M10.9783051,17.5932203 C10.9783051,17.0783786 11.3956668,16.6610169 11.9105085,16.6610169 C12.4253502,16.6610169 12.8427119,17.0783786 12.8427119,17.5932203 L12.8427119,20.9830508 C12.8427119,21.4978926 12.4253502,21.9152542 11.9105085,21.9152542 C11.3956668,21.9152542 10.9783051,21.4978926 10.9783051,20.9830508 L10.9783051,17.5932203 Z" id="l" fill-opacity="0.37" transform="translate(11.910508, 19.288136) rotate(180.000000) translate(-11.910508, -19.288136) "></path>
            <path d="M7.34559107,16.5744224 C7.34559107,16.0595807 7.76295274,15.642219 8.27779446,15.642219 C8.79263617,15.642219 9.20999785,16.0595807 9.20999785,16.5744224 L9.20999785,19.9642529 C9.20999785,20.4790947 8.79263617,20.8964563 8.27779446,20.8964563 C7.76295274,20.8964563 7.34559107,20.4790947 7.34559107,19.9642529 L7.34559107,16.5744224 Z" id="l" fill-opacity="0.46" transform="translate(8.277794, 18.269338) rotate(-150.000000) translate(-8.277794, -18.269338) "></path>
            <path d="M4.7089674,13.8757606 C4.7089674,13.3609188 5.12632907,12.9435572 5.64117079,12.9435572 C6.1560125,12.9435572 6.57337418,13.3609188 6.57337418,13.8757606 L6.57337418,17.2655911 C6.57337418,17.7804328 6.1560125,18.1977945 5.64117079,18.1977945 C5.12632907,18.1977945 4.7089674,17.7804328 4.7089674,17.2655911 L4.7089674,13.8757606 Z" id="l" fill-opacity="0.56" transform="translate(5.641171, 15.570676) rotate(-120.000000) translate(-5.641171, -15.570676) "></path>
            <path d="M3.77491525,10.220339 C3.77491525,9.70549727 4.19227693,9.28813559 4.70711864,9.28813559 C5.22196036,9.28813559 5.63932203,9.70549727 5.63932203,10.220339 L5.63932203,13.6101695 C5.63932203,14.1250112 5.22196036,14.5423729 4.70711864,14.5423729 C4.19227693,14.5423729 3.77491525,14.1250112 3.77491525,13.6101695 L3.77491525,10.220339 Z" id="l" fill-opacity="0.66" transform="translate(4.707119, 11.915254) rotate(-90.000000) translate(-4.707119, -11.915254) "></path>
            <path d="M4.79371316,6.58762497 C4.79371316,6.07278325 5.21107483,5.65542158 5.72591655,5.65542158 C6.24075826,5.65542158 6.65811994,6.07278325 6.65811994,6.58762497 L6.65811994,9.97745547 C6.65811994,10.4922972 6.24075826,10.9096589 5.72591655,10.9096589 C5.21107483,10.9096589 4.79371316,10.4922972 4.79371316,9.97745547 L4.79371316,6.58762497 Z" id="l" fill-opacity="0.75" transform="translate(5.725917, 8.282540) rotate(-60.000000) translate(-5.725917, -8.282540) "></path>
            <path d="M7.49237503,3.95100129 C7.49237503,3.43615958 7.90973671,3.0187979 8.42457842,3.0187979 C8.93942014,3.0187979 9.35678181,3.43615958 9.35678181,3.95100129 L9.35678181,7.3408318 C9.35678181,7.85567352 8.93942014,8.27303519 8.42457842,8.27303519 C7.90973671,8.27303519 7.49237503,7.85567352 7.49237503,7.3408318 L7.49237503,3.95100129 Z" id="l" fill-opacity="0.85" transform="translate(8.424578, 5.645917) rotate(-30.000000) translate(-8.424578, -5.645917) "></path>
        </g>
    </g>
</svg>